<svg width="84" height="48" viewBox="0 0 42 24" fill="none" xmlns="http://www.w3.org/2000/svg">
<path d="M1.73151 19V4.60001H7.41151C8.45151 4.60001 9.33817 4.77334 10.0715 5.12001C10.8048 5.45334 11.3715 5.92667 11.7715 6.54001C12.1715 7.14001 12.3715 7.85334 12.3715 8.68001C12.3715 9.50667 12.1715 10.2267 11.7715 10.84C11.3715 11.4533 10.8048 11.9333 10.0715 12.28C9.33817 12.6267 8.45151 12.8 7.41151 12.8H3.33151V11.08H7.35151C8.31151 11.08 9.03817 10.8733 9.53151 10.46C10.0382 10.0333 10.2915 9.44667 10.2915 8.70001C10.2915 7.95334 10.0448 7.37334 9.55151 6.96001C9.05817 6.54667 8.32484 6.34001 7.35151 6.34001H3.85151V19H1.73151ZM10.0515 19L3.03151 11.74H5.61151L13.0915 19H10.0515Z" fill="#EAD3D3"/>
<path d="M18.5692 19.2C17.5958 19.2 16.7292 18.9733 15.9692 18.52C15.2092 18.0533 14.6092 17.42 14.1692 16.62C13.7425 15.82 13.5292 14.9067 13.5292 13.88C13.5292 12.8533 13.7425 11.9467 14.1692 11.16C14.6092 10.36 15.2092 9.73334 15.9692 9.28001C16.7292 8.82667 17.5892 8.60001 18.5492 8.60001C19.3625 8.60001 20.0892 8.75334 20.7292 9.06001C21.3692 9.36667 21.8958 9.79334 22.3092 10.34C22.7225 10.8867 22.9892 11.5333 23.1092 12.28H21.1492C21.0158 11.68 20.7225 11.2 20.2692 10.84C19.8292 10.48 19.2692 10.3 18.5892 10.3C18.0025 10.3 17.4892 10.4467 17.0492 10.74C16.6092 11.0333 16.2692 11.4467 16.0292 11.98C15.7892 12.5133 15.6692 13.1467 15.6692 13.88C15.6692 14.6 15.7892 15.2333 16.0292 15.78C16.2692 16.3267 16.6092 16.7533 17.0492 17.06C17.4892 17.3533 18.0092 17.5 18.6092 17.5C19.2625 17.5 19.8158 17.3267 20.2692 16.98C20.7358 16.62 21.0358 16.14 21.1692 15.54H23.1292C22.9958 16.2733 22.7158 16.9133 22.2892 17.46C21.8758 18.0067 21.3492 18.4333 20.7092 18.74C20.0692 19.0467 19.3558 19.2 18.5692 19.2Z" fill="#EAD3D3"/>
<path d="M31 19L26 14L31 9.00001H33.5L28.5 14L33.5 19H31Z" fill="#EAD3D3"/>
<path d="M36 19L41 14L36 9.00001H33.5L38.5 14L33.5 19H36Z" fill="#EAD3D3"/>
</svg>
